<svg width="36" height="36" viewBox="0 0 36 36" fill="none" xmlns="http://www.w3.org/2000/svg">
<circle cx="18" cy="18" r="18" fill="url(#paint0_linear_244_1208)"/>
<path opacity="0.557152" d="M18.9778 9.41292H17.9778V10.3041L18.863 10.4063L18.9778 9.41292ZM18.9778 6H19.9778V5H18.9778V6ZM23.3266 11.2147L22.7058 11.9987L23.4039 12.5516L24.0337 11.9218L23.3266 11.2147ZM25.9818 8.55956L26.6889 7.85245L25.9818 7.14535L25.2747 7.85245L25.9818 8.55956ZM27.396 9.97377L28.1031 10.6809L28.8102 9.97377L28.1031 9.26667L27.396 9.97377ZM24.7408 12.6289L24.0337 11.9218L23.4039 12.5516L23.9569 13.2498L24.7408 12.6289ZM26.5426 16.9778L25.5492 17.0925L25.6515 17.9778H26.5426V16.9778ZM29.9556 16.9778H30.9556V15.9778H29.9556V16.9778ZM29.9556 18.9778V19.9778H30.9556V18.9778H29.9556ZM26.5426 18.9778V17.9778H25.6515L25.5492 18.863L26.5426 18.9778ZM24.7408 23.3266L23.9569 22.7058L23.4039 23.4039L24.0337 24.0337L24.7408 23.3266ZM27.396 25.9818L28.1031 26.6889L28.8102 25.9818L28.1031 25.2747L27.396 25.9818ZM25.9818 27.396L25.2747 28.1031L25.9818 28.8102L26.6889 28.1031L25.9818 27.396ZM23.3266 24.7408L24.0337 24.0337L23.4039 23.4039L22.7058 23.9569L23.3266 24.7408ZM18.9778 26.5426L18.863 25.5492L17.9778 25.6515V26.5426H18.9778ZM18.9778 29.9556V30.9556H19.9778V29.9556H18.9778ZM16.9778 29.9556H15.9778V30.9556H16.9778V29.9556ZM16.9778 26.5426H17.9778V25.6515L17.0925 25.5492L16.9778 26.5426ZM12.6289 24.7408L13.2498 23.9569L12.5516 23.4039L11.9218 24.0337L12.6289 24.7408ZM9.97377 27.396L9.26667 28.1031L9.97377 28.8102L10.6809 28.1031L9.97377 27.396ZM8.55956 25.9818L7.85245 25.2747L7.14535 25.9818L7.85245 26.6889L8.55956 25.9818ZM11.2147 23.3266L11.9218 24.0337L12.5516 23.4039L11.9987 22.7058L11.2147 23.3266ZM9.41292 18.9778L10.4063 18.863L10.3041 17.9778H9.41292V18.9778ZM6 18.9778H5V19.9778H6V18.9778ZM6 16.9778V15.9778H5V16.9778H6ZM9.41292 16.9778V17.9778H10.3041L10.4063 17.0925L9.41292 16.9778ZM11.2147 12.629L11.9987 13.2498L12.5516 12.5516L11.9218 11.9218L11.2147 12.629ZM8.55956 9.97377L7.85245 9.26667L7.14535 9.97377L7.85245 10.6809L8.55956 9.97377ZM9.97377 8.55956L10.6809 7.85245L9.97377 7.14535L9.26667 7.85245L9.97377 8.55956ZM12.629 11.2147L11.9218 11.9218L12.5516 12.5516L13.2498 11.9987L12.629 11.2147ZM16.9778 9.41292L17.0925 10.4063L17.9778 10.3041V9.41292H16.9778ZM16.9778 6V5H15.9778V6H16.9778ZM19.9778 9.41292V6H17.9778V9.41292H19.9778ZM23.9475 10.4308C22.5822 9.34955 20.9149 8.63 19.0925 8.41953L18.863 10.4063C20.3044 10.5728 21.6233 11.1414 22.7058 11.9987L23.9475 10.4308ZM25.2747 7.85245L22.6195 10.5076L24.0337 11.9218L26.6889 9.26667L25.2747 7.85245ZM28.1031 9.26667L26.6889 7.85245L25.2747 9.26667L26.6889 10.6809L28.1031 9.26667ZM25.4479 13.3361L28.1031 10.6809L26.6889 9.26667L24.0337 11.9218L25.4479 13.3361ZM27.536 16.863C27.3256 15.0406 26.606 13.3734 25.5248 12.0081L23.9569 13.2498C24.8141 14.3322 25.3828 15.6512 25.5492 17.0925L27.536 16.863ZM29.9556 15.9778H26.5426V17.9778H29.9556V15.9778ZM30.9556 18.9778V16.9778H28.9556V18.9778H30.9556ZM26.5426 19.9778H29.9556V17.9778H26.5426V19.9778ZM25.5248 23.9475C26.606 22.5822 27.3256 20.9149 27.536 19.0925L25.5492 18.863C25.3828 20.3044 24.8141 21.6233 23.9569 22.7058L25.5248 23.9475ZM28.1031 25.2747L25.4479 22.6195L24.0337 24.0337L26.6889 26.6889L28.1031 25.2747ZM26.6889 28.1031L28.1031 26.6889L26.6889 25.2747L25.2747 26.6889L26.6889 28.1031ZM22.6195 25.4479L25.2747 28.1031L26.6889 26.6889L24.0337 24.0337L22.6195 25.4479ZM19.0925 27.536C20.9149 27.3256 22.5822 26.606 23.9475 25.5248L22.7058 23.9569C21.6233 24.8141 20.3044 25.3828 18.863 25.5492L19.0925 27.536ZM19.9778 29.9556V26.5426H17.9778V29.9556H19.9778ZM16.9778 30.9556H18.9778V28.9556H16.9778V30.9556ZM15.9778 26.5426V29.9556H17.9778V26.5426H15.9778ZM12.0081 25.5248C13.3734 26.606 15.0406 27.3256 16.863 27.536L17.0925 25.5492C15.6512 25.3828 14.3322 24.8141 13.2498 23.9569L12.0081 25.5248ZM10.6809 28.1031L13.3361 25.4479L11.9218 24.0337L9.26667 26.6889L10.6809 28.1031ZM7.85245 26.6889L9.26667 28.1031L10.6809 26.6889L9.26667 25.2747L7.85245 26.6889ZM10.5076 22.6195L7.85245 25.2747L9.26667 26.6889L11.9218 24.0337L10.5076 22.6195ZM8.41953 19.0925C8.63 20.9149 9.34955 22.5822 10.4308 23.9475L11.9987 22.7058C11.1414 21.6233 10.5728 20.3044 10.4063 18.863L8.41953 19.0925ZM6 19.9778H9.41292V17.9778H6V19.9778ZM5 16.9778V18.9778H7V16.9778H5ZM9.41292 15.9778H6V17.9778H9.41292V15.9778ZM10.4308 12.0081C9.34955 13.3734 8.63 15.0406 8.41953 16.863L10.4063 17.0925C10.5728 15.6512 11.1414 14.3322 11.9987 13.2498L10.4308 12.0081ZM7.85245 10.6809L10.5076 13.3361L11.9218 11.9218L9.26667 9.26667L7.85245 10.6809ZM9.26667 7.85245L7.85245 9.26667L9.26667 10.6809L10.6809 9.26667L9.26667 7.85245ZM13.3361 10.5076L10.6809 7.85245L9.26667 9.26667L11.9218 11.9218L13.3361 10.5076ZM16.863 8.41953C15.0406 8.63 13.3734 9.34955 12.0081 10.4308L13.2498 11.9987C14.3322 11.1414 15.6512 10.5728 17.0925 10.4063L16.863 8.41953ZM15.9778 6V9.41292H17.9778V6H15.9778ZM18.9778 5H16.9778V7H18.9778V5ZM12.3556 17.9778C12.3556 14.8727 14.8727 12.3556 17.9778 12.3556V10.3556C13.7681 10.3556 10.3556 13.7681 10.3556 17.9778H12.3556ZM17.9778 23.6C14.8727 23.6 12.3556 21.0828 12.3556 17.9778H10.3556C10.3556 22.1874 13.7681 25.6 17.9778 25.6V23.6ZM23.6 17.9778C23.6 21.0828 21.0828 23.6 17.9778 23.6V25.6C22.1874 25.6 25.6 22.1874 25.6 17.9778H23.6ZM17.9778 12.3556C21.0828 12.3556 23.6 14.8727 23.6 17.9778H25.6C25.6 13.7681 22.1874 10.3556 17.9778 10.3556V12.3556Z" fill="white"/>
<defs>
<linearGradient id="paint0_linear_244_1208" x1="0" y1="0" x2="0" y2="36" gradientUnits="userSpaceOnUse">
<stop stop-color="#006FFF"/>
<stop offset="1" stop-color="#003B89"/>
</linearGradient>
</defs>
</svg>
