<svg width="32" height="32" viewBox="0 0 32 32" fill="none" xmlns="http://www.w3.org/2000/svg">
<circle cx="16" cy="16" r="16" fill="#F1F3F9"/>
<path fill-rule="evenodd" clip-rule="evenodd" d="M18.2728 24.0911C17.145 24.0911 16.2273 23.1734 16.2273 22.0456C16.2273 20.9179 17.145 20.0002 18.2728 20.0002C19.4005 20.0002 20.3182 20.9179 20.3182 22.0456C20.3182 23.1734 19.4005 24.0911 18.2728 24.0911ZM9.40909 11.1366C10.5368 11.1366 11.4545 12.0543 11.4545 13.182C11.4545 14.3097 10.5368 15.2275 9.40909 15.2275C8.28136 15.2275 7.36363 14.3097 7.36363 13.182C7.36363 12.0543 8.28136 11.1366 9.40909 11.1366ZM18.2728 18.6365C16.5539 18.6365 15.1418 19.9204 14.9107 21.5765L9.8775 16.544C11.5343 16.3122 12.8182 14.9009 12.8182 13.182C12.8182 11.3023 11.2889 9.77295 9.40909 9.77295C7.52932 9.77295 6 11.3023 6 13.182C6 14.1168 6.37977 14.9643 6.99068 15.5806C6.99409 15.584 6.99545 15.5888 6.99886 15.5929L15.8625 24.4565C15.8666 24.46 15.8714 24.4606 15.8748 24.4647C16.4919 25.0756 17.3387 25.4547 18.2728 25.4547C20.1525 25.4547 21.6819 23.9254 21.6819 22.0456C21.6819 20.1659 20.1525 18.6365 18.2728 18.6365Z" fill="#00428E"/>
<path fill-rule="evenodd" clip-rule="evenodd" d="M16.2267 5C15.8496 5 15.5449 5.30546 15.5449 5.68182C15.5449 6.05818 15.8496 6.36364 16.2267 6.36364C21.114 6.36364 25.0903 10.34 25.0903 15.2272C25.0903 15.6036 25.3951 15.9091 25.7721 15.9091C26.1492 15.9091 26.4539 15.6036 26.4539 15.2272C26.4539 9.58795 21.866 5 16.2267 5Z" fill="#00428E"/>
<path fill-rule="evenodd" clip-rule="evenodd" d="M16.2267 8.40918C15.8496 8.40918 15.5449 8.71464 15.5449 9.091C15.5449 9.46736 15.8496 9.77282 16.2267 9.77282C19.2342 9.77282 21.6812 12.2199 21.6812 15.2273C21.6812 15.6037 21.986 15.9091 22.363 15.9091C22.7401 15.9091 23.0449 15.6037 23.0449 15.2273C23.0449 11.4678 19.9862 8.40918 16.2267 8.40918Z" fill="#00428E"/>
<path fill-rule="evenodd" clip-rule="evenodd" d="M18.2721 15.2274C18.2721 15.6038 18.5769 15.9092 18.954 15.9092C19.331 15.9092 19.6358 15.6038 19.6358 15.2274C19.6358 13.3477 18.1065 11.8184 16.2267 11.8184C15.8496 11.8184 15.5449 12.1238 15.5449 12.5002C15.5449 12.8765 15.8496 13.182 16.2267 13.182C17.3544 13.182 18.2721 14.0997 18.2721 15.2274Z" fill="#00428E"/>
</svg>
