<svg width="369" height="143" viewBox="0 0 369 143" fill="none" xmlns="http://www.w3.org/2000/svg">
<g filter="url(#filter0_d_3646_40637)">
<path d="M239.739 40.657C239.743 40.5471 238.919 40.4496 238.741 40.4137C238.726 40.405 238.71 40.3975 238.694 40.3915C236.762 39.6397 184.49 35 184.49 35C184.49 35 132.239 39.6409 130.31 40.3915C130.293 40.3993 130.275 40.4067 130.258 40.4137C130.077 40.4496 129.247 40.5471 129.252 40.657C123.061 42.3731 118.5 48.1455 118.5 55.0008C118.5 61.8592 123.062 67.6359 129.252 69.3612C129.247 69.4706 130.077 69.5684 130.258 69.6003C130.275 69.6102 130.293 69.6124 130.31 69.6191C132.239 70.3771 184.49 75 184.49 75C184.49 75 236.761 70.3771 238.694 69.6191C238.711 69.6135 238.728 69.6102 238.741 69.6003C238.92 69.5684 239.743 69.4706 239.739 69.361C245.941 67.6359 250.5 61.8584 250.5 55.0008C250.5 48.1455 245.941 42.3739 239.739 40.657Z" fill="#ED1B23"/>
<path fill-rule="evenodd" clip-rule="evenodd" d="M154.876 61.2057H152.208V61.206L151.325 58.2158H146.311L145.416 61.206H142.779L145.643 51.9988C146.222 50.2203 148.084 50.2203 148.084 50.2203C148.797 50.1124 149.572 50.2203 149.572 50.2203C149.572 50.2203 151.433 50.2203 152.012 51.9991L154.876 61.2057ZM130.759 50.2211H136.217C141.896 50.2211 141.963 55.4744 141.965 55.5989L141.965 55.6012C141.965 61.1975 135.99 61.2068 135.99 61.2068H130.748L130.759 50.2211ZM135.338 59.3861C135.338 59.3861 139.215 59.356 139.215 55.6776H139.215C139.215 55.6776 139.37 51.9667 135.494 51.9679H133.23V59.3861H135.338ZM146.836 56.4573L147.96 52.692C148.123 52.1426 148.628 52.0275 148.828 52.0038C149.027 52.0275 149.532 52.1426 149.696 52.692L150.806 56.4573H146.836ZM166.722 56.0353H161.358V54.2773H166.722V56.0353ZM156.861 61.2057H159.406V50.1778H156.861V61.2057ZM171.313 61.2057H168.769V50.1778H171.313V61.2057ZM196.389 61.2057H198.933V50.1778H196.389V61.2057ZM217.788 61.2056H215.244V50.2199H217.788V61.2056ZM191.863 54.2785V50.179H194.405V61.2069H191.863V56.0365H186.961V61.2069H184.421V50.179H186.961V54.2785H191.863ZM213.54 59.3302H208.435C208.435 59.3302 207.068 59.3302 207.015 57.8571V50.2211H204.474V57.7255C204.474 61.1975 207.483 61.1975 207.483 61.1975H213.541V59.3302H213.54ZM228.964 52.0439H223.857V52.0436C223.857 52.0436 222.494 52.0436 222.442 53.5179V55.0567H228.624V56.815H222.442V61.1967H219.9V53.6489C219.9 50.1778 222.909 50.1778 222.909 50.1778H228.964V52.0439ZM234.484 59.3304C234.484 59.3304 233.121 59.3304 233.068 57.8572V56.4266H239.189V54.6695H233.068V53.5203C233.121 52.0451 234.484 52.0894 234.484 52.0894H239.594V50.2221H233.536C233.536 50.2221 230.527 50.1799 230.527 53.6498V57.7257C230.527 61.1976 233.536 61.1976 233.536 61.1976H239.613L239.573 59.3304H234.484ZM178.973 50.2096H182.632V52.0657H179.324C177.559 52.0657 175.871 53.6961 175.871 55.7094C175.871 57.7225 177.559 59.3561 179.324 59.3561H182.647V61.2069H178.973C175.718 61.2069 173.081 58.745 173.081 55.7094C173.081 52.6735 175.718 50.2096 178.973 50.2096Z" fill="white"/>
<path d="M144.325 84.4041C145.269 84.4041 146.084 84.5863 146.772 84.9509C147.771 85.475 148.381 86.3933 148.604 87.7058H147.258C147.094 86.9721 146.754 86.4389 146.239 86.1062C145.724 85.769 145.075 85.6003 144.291 85.6003C143.361 85.6003 142.577 85.949 141.939 86.6462C141.306 87.3435 140.989 88.3826 140.989 89.7634C140.989 90.9574 141.251 91.9304 141.775 92.6824C142.299 93.4298 143.154 93.8035 144.339 93.8035C145.246 93.8035 145.995 93.5414 146.588 93.0173C147.185 92.4887 147.49 91.6365 147.504 90.4607H144.359V89.3328H148.769V94.7058H147.894L147.565 93.4138C147.105 93.9197 146.697 94.2706 146.342 94.4666C145.745 94.8038 144.986 94.9724 144.065 94.9724C142.876 94.9724 141.853 94.5873 140.996 93.8171C140.062 92.851 139.595 91.5248 139.595 89.8386C139.595 88.157 140.05 86.8194 140.962 85.8259C141.828 84.878 142.949 84.4041 144.325 84.4041ZM151.66 92.7576C151.66 93.113 151.79 93.3933 152.05 93.5984C152.31 93.8035 152.617 93.906 152.973 93.906C153.406 93.906 153.825 93.8057 154.23 93.6052C154.914 93.2725 155.256 92.7279 155.256 91.9714V90.9802C155.105 91.0759 154.912 91.1557 154.675 91.2195C154.438 91.2833 154.205 91.3289 153.978 91.3562L153.232 91.4519C152.786 91.5111 152.451 91.6046 152.228 91.7322C151.849 91.9464 151.66 92.2882 151.66 92.7576ZM154.641 90.2693C154.923 90.2328 155.112 90.1143 155.208 89.9138C155.263 89.8044 155.29 89.6472 155.29 89.4421C155.29 89.0229 155.14 88.7198 154.839 88.533C154.543 88.3416 154.117 88.2458 153.561 88.2458C152.918 88.2458 152.462 88.419 152.193 88.7654C152.043 88.9568 151.945 89.2416 151.899 89.6199H150.751C150.774 88.7175 151.065 88.0909 151.626 87.74C152.191 87.3845 152.845 87.2068 153.588 87.2068C154.449 87.2068 155.149 87.3708 155.687 87.699C156.22 88.0271 156.486 88.5375 156.486 89.2302V93.448C156.486 93.5756 156.511 93.6781 156.562 93.7556C156.616 93.8331 156.728 93.8718 156.896 93.8718C156.951 93.8718 157.013 93.8695 157.081 93.865C157.149 93.8559 157.222 93.8445 157.3 93.8308V94.74C157.108 94.7947 156.963 94.8289 156.862 94.8425C156.762 94.8562 156.625 94.863 156.452 94.863C156.028 94.863 155.721 94.7126 155.529 94.4119C155.429 94.2524 155.358 94.0268 155.317 93.7351C155.067 94.0632 154.707 94.3481 154.237 94.5896C153.768 94.8311 153.251 94.9519 152.686 94.9519C152.007 94.9519 151.451 94.7468 151.018 94.3367C150.589 93.922 150.375 93.4047 150.375 92.7849C150.375 92.1059 150.587 91.5795 151.011 91.2058C151.435 90.8321 151.991 90.602 152.679 90.5154L154.641 90.2693ZM152.467 84.5408C152.54 84.837 152.647 85.0603 152.788 85.2107C153.043 85.4796 153.44 85.614 153.978 85.614C154.474 85.614 154.846 85.4796 155.092 85.2107C155.233 85.0557 155.34 84.8324 155.413 84.5408H156.09C155.999 85.2107 155.762 85.6938 155.379 85.99C155.001 86.2862 154.488 86.4343 153.841 86.4343C153.034 86.4343 152.455 86.1632 152.104 85.6208C151.922 85.3383 151.811 84.9783 151.77 84.5408H152.467ZM156.028 82.49L154.203 84.4656H153.26L154.511 82.49H156.028ZM158.51 87.3845H159.679V88.4236C160.025 87.9952 160.392 87.6876 160.779 87.5007C161.167 87.3139 161.597 87.2205 162.071 87.2205C163.11 87.2205 163.812 87.5828 164.177 88.3074C164.377 88.7039 164.478 89.2712 164.478 90.0095V94.7058H163.227V90.0916C163.227 89.6449 163.16 89.2849 163.028 89.0115C162.81 88.5557 162.413 88.3279 161.839 88.3279C161.547 88.3279 161.308 88.3575 161.121 88.4167C160.784 88.517 160.488 88.7175 160.232 89.0183C160.027 89.2598 159.893 89.5105 159.829 89.7703C159.77 90.0255 159.74 90.3923 159.74 90.8708V94.7058H158.51V87.3845ZM170.104 84.6296H171.3V88.2732C171.569 87.9223 171.89 87.6557 172.264 87.4734C172.637 87.2865 173.043 87.1931 173.48 87.1931C174.392 87.1931 175.13 87.5076 175.695 88.1365C176.265 88.7608 176.55 89.6837 176.55 90.905C176.55 92.0626 176.27 93.0242 175.709 93.7898C175.148 94.5554 174.371 94.9382 173.378 94.9382C172.822 94.9382 172.353 94.8038 171.97 94.5349C171.742 94.3754 171.498 94.1202 171.238 93.7693V94.7058H170.104V84.6296ZM173.303 93.8513C173.968 93.8513 174.465 93.587 174.793 93.0583C175.126 92.5297 175.292 91.8324 175.292 90.9666C175.292 90.1964 175.126 89.5583 174.793 89.0525C174.465 88.5466 173.979 88.2937 173.337 88.2937C172.776 88.2937 172.284 88.5011 171.86 88.9158C171.441 89.3305 171.231 90.0141 171.231 90.9666C171.231 91.6547 171.318 92.213 171.491 92.6414C171.815 93.448 172.419 93.8513 173.303 93.8513ZM180.897 93.9128C181.713 93.9128 182.271 93.6052 182.572 92.99C182.878 92.3702 183.03 91.682 183.03 90.9255C183.03 90.2419 182.921 89.686 182.702 89.2576C182.356 88.5831 181.759 88.2458 180.911 88.2458C180.159 88.2458 179.612 88.533 179.271 89.1072C178.929 89.6814 178.758 90.3741 178.758 91.1853C178.758 91.9646 178.929 92.614 179.271 93.1335C179.612 93.6531 180.155 93.9128 180.897 93.9128ZM180.945 87.1726C181.889 87.1726 182.686 87.4871 183.338 88.116C183.99 88.7449 184.315 89.67 184.315 90.8914C184.315 92.0717 184.028 93.047 183.454 93.8171C182.88 94.5873 181.989 94.9724 180.781 94.9724C179.774 94.9724 178.974 94.6329 178.382 93.9539C177.789 93.2703 177.493 92.3542 177.493 91.2058C177.493 89.9753 177.805 88.9955 178.43 88.2664C179.054 87.5372 179.893 87.1726 180.945 87.1726ZM182.374 84.4382L180.549 86.4138H179.605L180.856 84.4382H182.374ZM190.461 91.1306C190.461 91.9145 190.627 92.5707 190.96 93.0994C191.293 93.628 191.826 93.8923 192.56 93.8923C193.129 93.8923 193.596 93.6485 193.961 93.1609C194.33 92.6687 194.515 91.9646 194.515 91.0486C194.515 90.1235 194.326 89.4399 193.947 88.9978C193.569 88.5512 193.102 88.3279 192.546 88.3279C191.926 88.3279 191.423 88.5649 191.035 89.0388C190.652 89.5128 190.461 90.21 190.461 91.1306ZM192.313 87.2546C192.874 87.2546 193.343 87.3731 193.722 87.6101C193.94 87.7468 194.189 87.9861 194.467 88.3279V84.6296H195.649V94.7058H194.542V93.6873C194.255 94.1384 193.915 94.4643 193.523 94.6648C193.132 94.8653 192.683 94.9656 192.177 94.9656C191.361 94.9656 190.655 94.6238 190.058 93.9402C189.461 93.252 189.162 92.3383 189.162 91.199C189.162 90.1326 189.433 89.2097 189.976 88.4304C190.522 87.6466 191.302 87.2546 192.313 87.2546ZM198.418 92.7576C198.418 93.113 198.548 93.3933 198.808 93.5984C199.067 93.8035 199.375 93.906 199.73 93.906C200.163 93.906 200.583 93.8057 200.988 93.6052C201.672 93.2725 202.014 92.7279 202.014 91.9714V90.9802C201.863 91.0759 201.67 91.1557 201.433 91.2195C201.196 91.2833 200.963 91.3289 200.735 91.3562L199.99 91.4519C199.544 91.5111 199.209 91.6046 198.985 91.7322C198.607 91.9464 198.418 92.2882 198.418 92.7576ZM201.398 90.2693C201.681 90.2328 201.87 90.1143 201.966 89.9138C202.021 89.8044 202.048 89.6472 202.048 89.4421C202.048 89.0229 201.897 88.7198 201.597 88.533C201.3 88.3416 200.874 88.2458 200.318 88.2458C199.676 88.2458 199.22 88.419 198.951 88.7654C198.801 88.9568 198.703 89.2416 198.657 89.6199H197.509C197.532 88.7175 197.823 88.0909 198.384 87.74C198.949 87.3845 199.603 87.2068 200.346 87.2068C201.207 87.2068 201.907 87.3708 202.444 87.699C202.978 88.0271 203.244 88.5375 203.244 89.2302V93.448C203.244 93.5756 203.269 93.6781 203.319 93.7556C203.374 93.8331 203.486 93.8718 203.654 93.8718C203.709 93.8718 203.771 93.8695 203.839 93.865C203.907 93.8559 203.98 93.8445 204.058 93.8308V94.74C203.866 94.7947 203.72 94.8289 203.62 94.8425C203.52 94.8562 203.383 94.863 203.21 94.863C202.786 94.863 202.479 94.7126 202.287 94.4119C202.187 94.2524 202.116 94.0268 202.075 93.7351C201.825 94.0632 201.465 94.3481 200.995 94.5896C200.526 94.8311 200.008 94.9519 199.443 94.9519C198.764 94.9519 198.208 94.7468 197.775 94.3367C197.347 93.922 197.133 93.4047 197.133 92.7849C197.133 92.1059 197.345 91.5795 197.769 91.2058C198.192 90.8321 198.748 90.602 199.437 90.5154L201.398 90.2693ZM201.269 86.4138H200.332L198.5 84.4382H200.024L201.269 86.4138ZM205.268 87.4187H206.519V94.7058H205.268V87.4187ZM205.268 84.6638H206.519V86.0583H205.268V84.6638ZM212.315 84.6638H213.546V94.7058H212.315V84.6638ZM216.342 92.7576C216.342 93.113 216.472 93.3933 216.731 93.5984C216.991 93.8035 217.299 93.906 217.654 93.906C218.087 93.906 218.507 93.8057 218.912 93.6052C219.596 93.2725 219.938 92.7279 219.938 91.9714V90.9802C219.787 91.0759 219.593 91.1557 219.356 91.2195C219.119 91.2833 218.887 91.3289 218.659 91.3562L217.914 91.4519C217.467 91.5111 217.132 91.6046 216.909 91.7322C216.531 91.9464 216.342 92.2882 216.342 92.7576ZM219.322 90.2693C219.605 90.2328 219.794 90.1143 219.89 89.9138C219.944 89.8044 219.972 89.6472 219.972 89.4421C219.972 89.0229 219.821 88.7198 219.521 88.533C219.224 88.3416 218.798 88.2458 218.242 88.2458C217.6 88.2458 217.144 88.419 216.875 88.7654C216.725 88.9568 216.627 89.2416 216.581 89.6199H215.433C215.455 88.7175 215.747 88.0909 216.308 87.74C216.873 87.3845 217.527 87.2068 218.27 87.2068C219.131 87.2068 219.83 87.3708 220.368 87.699C220.901 88.0271 221.168 88.5375 221.168 89.2302V93.448C221.168 93.5756 221.193 93.6781 221.243 93.7556C221.298 93.8331 221.41 93.8718 221.578 93.8718C221.633 93.8718 221.694 93.8695 221.763 93.865C221.831 93.8559 221.904 93.8445 221.981 93.8308V94.74C221.79 94.7947 221.644 94.8289 221.544 94.8425C221.444 94.8562 221.307 94.863 221.134 94.863C220.71 94.863 220.402 94.7126 220.211 94.4119C220.111 94.2524 220.04 94.0268 219.999 93.7351C219.748 94.0632 219.388 94.3481 218.919 94.5896C218.45 94.8311 217.932 94.9519 217.367 94.9519C216.688 94.9519 216.132 94.7468 215.699 94.3367C215.271 93.922 215.057 93.4047 215.057 92.7849C215.057 92.1059 215.269 91.5795 215.692 91.2058C216.116 90.8321 216.672 90.602 217.36 90.5154L219.322 90.2693ZM219.124 84.4382L220.519 86.4138H219.397L218.475 85.1013L217.552 86.4138H216.438L217.825 84.4382H219.124ZM224.422 87.3845V92.2449C224.422 92.6186 224.481 92.9239 224.6 93.1609C224.818 93.5984 225.226 93.8171 225.823 93.8171C226.68 93.8171 227.263 93.4343 227.573 92.6687C227.742 92.2585 227.826 91.6957 227.826 90.9802V87.3845H229.057V94.7058H227.895L227.908 93.6257C227.749 93.9037 227.55 94.1384 227.313 94.3298C226.844 94.7126 226.274 94.9041 225.604 94.9041C224.561 94.9041 223.85 94.5554 223.472 93.8582C223.267 93.4845 223.164 92.9854 223.164 92.3611V87.3845H224.422Z" fill="#979797"/>
</g>
<path d="M91.4704 135.706V115.826H98.6944C100.86 115.826 102.67 116.274 104.126 117.17C105.582 118.047 106.674 119.242 107.402 120.754C108.13 122.247 108.494 123.908 108.494 125.738C108.494 127.754 108.093 129.508 107.29 131.002C106.488 132.495 105.349 133.652 103.874 134.474C102.418 135.295 100.692 135.706 98.6944 135.706H91.4704ZM104.602 125.738C104.602 124.45 104.369 123.32 103.902 122.35C103.436 121.36 102.764 120.595 101.886 120.054C101.009 119.494 99.9451 119.214 98.6944 119.214H95.3344V132.318H98.6944C99.9638 132.318 101.037 132.038 101.914 131.478C102.792 130.899 103.454 130.115 103.902 129.126C104.369 128.118 104.602 126.988 104.602 125.738ZM109.95 131.366C109.95 130.414 110.211 129.583 110.734 128.874C111.275 128.146 112.022 127.586 112.974 127.194C113.926 126.802 115.018 126.606 116.25 126.606C116.866 126.606 117.491 126.652 118.126 126.746C118.761 126.839 119.311 126.988 119.778 127.194V126.41C119.778 125.476 119.498 124.758 118.938 124.254C118.397 123.75 117.585 123.498 116.502 123.498C115.699 123.498 114.934 123.638 114.206 123.918C113.478 124.198 112.713 124.608 111.91 125.15L110.706 122.686C111.677 122.051 112.666 121.575 113.674 121.258C114.701 120.94 115.774 120.782 116.894 120.782C118.985 120.782 120.609 121.304 121.766 122.35C122.942 123.395 123.53 124.888 123.53 126.83V131.506C123.53 131.898 123.595 132.178 123.726 132.346C123.875 132.514 124.109 132.616 124.426 132.654V135.706C124.09 135.762 123.782 135.808 123.502 135.846C123.241 135.883 123.017 135.902 122.83 135.902C122.083 135.902 121.514 135.734 121.122 135.398C120.749 135.062 120.515 134.651 120.422 134.166L120.338 133.41C119.703 134.231 118.91 134.866 117.958 135.314C117.006 135.762 116.035 135.986 115.046 135.986C114.075 135.986 113.198 135.79 112.414 135.398C111.649 134.987 111.042 134.436 110.594 133.746C110.165 133.036 109.95 132.243 109.95 131.366ZM119.078 132.122C119.283 131.898 119.451 131.674 119.582 131.45C119.713 131.226 119.778 131.02 119.778 130.834V129.35C119.33 129.163 118.845 129.023 118.322 128.93C117.799 128.818 117.305 128.762 116.838 128.762C115.867 128.762 115.065 128.976 114.43 129.406C113.814 129.816 113.506 130.367 113.506 131.058C113.506 131.431 113.609 131.786 113.814 132.122C114.019 132.458 114.318 132.728 114.71 132.934C115.102 133.139 115.569 133.242 116.11 133.242C116.67 133.242 117.221 133.139 117.762 132.934C118.303 132.71 118.742 132.439 119.078 132.122ZM127.036 135.706V121.034H130.788V135.706H127.036ZM127.036 118.99V115.266H130.788V118.99H127.036ZM134.089 129.714V126.326H142.573V129.714H134.089ZM145.876 135.706V121.034H149.628V135.706H145.876ZM145.876 118.99V115.266H149.628V118.99H145.876ZM159.845 135.986C158.65 135.986 157.577 135.79 156.625 135.398C155.673 134.987 154.861 134.427 154.189 133.718C153.517 132.99 152.994 132.168 152.621 131.254C152.266 130.339 152.089 129.378 152.089 128.37C152.089 126.988 152.397 125.728 153.013 124.59C153.647 123.432 154.543 122.508 155.701 121.818C156.858 121.127 158.23 120.782 159.817 120.782C161.403 120.782 162.766 121.127 163.905 121.818C165.043 122.508 165.893 123.414 166.453 124.534L162.785 125.654C162.467 125.112 162.047 124.702 161.525 124.422C161.002 124.123 160.423 123.974 159.789 123.974C159.079 123.974 158.426 124.16 157.829 124.534C157.25 124.888 156.793 125.402 156.457 126.074C156.121 126.727 155.953 127.492 155.953 128.37C155.953 129.228 156.121 129.994 156.457 130.666C156.811 131.319 157.278 131.842 157.857 132.234C158.435 132.607 159.079 132.794 159.789 132.794C160.237 132.794 160.657 132.719 161.049 132.57C161.459 132.42 161.823 132.215 162.141 131.954C162.458 131.692 162.691 131.394 162.841 131.058L166.509 132.178C166.173 132.906 165.678 133.559 165.025 134.138C164.39 134.716 163.634 135.174 162.757 135.51C161.898 135.827 160.927 135.986 159.845 135.986ZM182.453 135.706H178.701V127.474C178.701 126.335 178.477 125.486 178.029 124.926C177.6 124.366 177.003 124.086 176.237 124.086C175.789 124.086 175.313 124.216 174.809 124.478C174.305 124.739 173.848 125.103 173.437 125.57C173.045 126.018 172.756 126.54 172.569 127.138V135.706H168.817V115.266H172.569V123.75C173.111 122.816 173.848 122.088 174.781 121.566C175.715 121.043 176.732 120.782 177.833 120.782C178.785 120.782 179.56 120.95 180.157 121.286C180.755 121.603 181.221 122.042 181.557 122.602C181.893 123.143 182.127 123.759 182.257 124.45C182.388 125.122 182.453 125.822 182.453 126.55V135.706ZM185.716 135.706V121.034H189.468V135.706H185.716ZM185.716 118.99V115.266H189.468V118.99H185.716ZM216.155 135.706V122.658L211.059 132.374H208.903L203.807 122.658V135.706H199.943V115.826H204.087L209.967 127.138L215.903 115.826H220.019V135.706H216.155ZM230.364 135.986C229.188 135.986 228.124 135.79 227.172 135.398C226.22 134.987 225.408 134.436 224.736 133.746C224.064 133.036 223.541 132.234 223.168 131.338C222.813 130.423 222.636 129.462 222.636 128.454C222.636 127.054 222.944 125.775 223.56 124.618C224.194 123.46 225.09 122.536 226.248 121.846C227.424 121.136 228.805 120.782 230.392 120.782C231.997 120.782 233.369 121.136 234.508 121.846C235.646 122.536 236.514 123.46 237.112 124.618C237.728 125.756 238.036 126.988 238.036 128.314C238.036 128.538 238.026 128.771 238.008 129.014C237.989 129.238 237.97 129.424 237.952 129.574H226.612C226.686 130.32 226.901 130.974 227.256 131.534C227.629 132.094 228.096 132.523 228.656 132.822C229.234 133.102 229.85 133.242 230.504 133.242C231.25 133.242 231.95 133.064 232.604 132.71C233.276 132.336 233.733 131.851 233.976 131.254L237.196 132.15C236.841 132.896 236.328 133.559 235.656 134.138C235.002 134.716 234.228 135.174 233.332 135.51C232.436 135.827 231.446 135.986 230.364 135.986ZM226.528 127.194H234.2C234.125 126.447 233.91 125.803 233.556 125.262C233.22 124.702 232.772 124.272 232.212 123.974C231.652 123.656 231.026 123.498 230.336 123.498C229.664 123.498 229.048 123.656 228.488 123.974C227.946 124.272 227.498 124.702 227.144 125.262C226.808 125.803 226.602 126.447 226.528 127.194ZM239.425 128.37C239.425 126.951 239.705 125.672 240.265 124.534C240.825 123.376 241.6 122.462 242.589 121.79C243.579 121.118 244.708 120.782 245.977 120.782C247.06 120.782 248.031 121.052 248.889 121.594C249.767 122.116 250.448 122.788 250.933 123.61V115.266H254.685V131.506C254.685 131.898 254.751 132.178 254.881 132.346C255.012 132.514 255.236 132.616 255.553 132.654V135.706C254.9 135.836 254.368 135.902 253.957 135.902C253.285 135.902 252.725 135.734 252.277 135.398C251.848 135.062 251.605 134.623 251.549 134.082L251.493 133.158C250.952 134.072 250.215 134.772 249.281 135.258C248.367 135.743 247.405 135.986 246.397 135.986C245.389 135.986 244.456 135.79 243.597 135.398C242.757 135.006 242.02 134.464 241.385 133.774C240.769 133.083 240.284 132.28 239.929 131.366C239.593 130.432 239.425 129.434 239.425 128.37ZM250.933 130.33V126.83C250.747 126.288 250.448 125.803 250.037 125.374C249.627 124.944 249.169 124.608 248.665 124.366C248.161 124.104 247.657 123.974 247.153 123.974C246.575 123.974 246.052 124.095 245.585 124.338C245.119 124.58 244.708 124.907 244.353 125.318C244.017 125.728 243.756 126.204 243.569 126.746C243.401 127.287 243.317 127.856 243.317 128.454C243.317 129.051 243.411 129.62 243.597 130.162C243.803 130.684 244.092 131.142 244.465 131.534C244.839 131.926 245.268 132.234 245.753 132.458C246.257 132.682 246.799 132.794 247.377 132.794C247.732 132.794 248.087 132.738 248.441 132.626C248.815 132.495 249.16 132.327 249.477 132.122C249.813 131.898 250.103 131.636 250.345 131.338C250.607 131.02 250.803 130.684 250.933 130.33ZM258.368 135.706V121.034H262.12V135.706H258.368ZM258.368 118.99V115.266H262.12V118.99H258.368ZM272.337 135.986C271.142 135.986 270.069 135.79 269.117 135.398C268.165 134.987 267.353 134.427 266.681 133.718C266.009 132.99 265.486 132.168 265.113 131.254C264.758 130.339 264.581 129.378 264.581 128.37C264.581 126.988 264.889 125.728 265.505 124.59C266.14 123.432 267.036 122.508 268.193 121.818C269.35 121.127 270.722 120.782 272.309 120.782C273.896 120.782 275.258 121.127 276.397 121.818C277.536 122.508 278.385 123.414 278.945 124.534L275.277 125.654C274.96 125.112 274.54 124.702 274.017 124.422C273.494 124.123 272.916 123.974 272.281 123.974C271.572 123.974 270.918 124.16 270.321 124.534C269.742 124.888 269.285 125.402 268.949 126.074C268.613 126.727 268.445 127.492 268.445 128.37C268.445 129.228 268.613 129.994 268.949 130.666C269.304 131.319 269.77 131.842 270.349 132.234C270.928 132.607 271.572 132.794 272.281 132.794C272.729 132.794 273.149 132.719 273.541 132.57C273.952 132.42 274.316 132.215 274.633 131.954C274.95 131.692 275.184 131.394 275.333 131.058L279.001 132.178C278.665 132.906 278.17 133.559 277.517 134.138C276.882 134.716 276.126 135.174 275.249 135.51C274.39 135.827 273.42 135.986 272.337 135.986Z" fill="#ED1B23"/>
<defs>
<filter id="filter0_d_3646_40637" x="85.4" y="0.900002" width="198.2" height="128.906" filterUnits="userSpaceOnUse" color-interpolation-filters="sRGB">
<feFlood flood-opacity="0" result="BackgroundImageFix"/>
<feColorMatrix in="SourceAlpha" type="matrix" values="0 0 0 0 0 0 0 0 0 0 0 0 0 0 0 0 0 0 127 0" result="hardAlpha"/>
<feOffset dy="-1"/>
<feGaussianBlur stdDeviation="16.55"/>
<feComposite in2="hardAlpha" operator="out"/>
<feColorMatrix type="matrix" values="0 0 0 0 1 0 0 0 0 1 0 0 0 0 1 0 0 0 0.3 0"/>
<feBlend mode="normal" in2="BackgroundImageFix" result="effect1_dropShadow_3646_40637"/>
<feBlend mode="normal" in="SourceGraphic" in2="effect1_dropShadow_3646_40637" result="shape"/>
</filter>
</defs>
</svg>
