<svg width="361" height="143" viewBox="0 0 361 143" fill="none" xmlns="http://www.w3.org/2000/svg">
<path d="M263.358 8.48547C263.365 8.32065 262.128 8.17433 261.861 8.12051C261.838 8.10743 261.815 8.09631 261.791 8.08729C258.892 6.95959 180.485 0 180.485 0C180.485 0 102.109 6.96127 99.2155 8.08729C99.1894 8.099 99.1629 8.11008 99.1363 8.12051C98.8649 8.17433 97.6208 8.32065 97.6278 8.48547C88.3408 11.0596 81.5 19.7183 81.5 30.0013C81.5 40.2889 88.3425 48.9539 97.6278 51.5419C97.6208 51.7058 98.8653 51.8526 99.1363 51.9005C99.1627 51.9152 99.1891 51.9186 99.2155 51.9287C102.108 53.0656 180.485 60 180.485 60C180.485 60 258.892 53.0656 261.79 51.9287C261.817 51.9203 261.842 51.9152 261.861 51.9005C262.129 51.8526 263.365 51.7058 263.358 51.5414C272.661 48.9539 279.5 40.2876 279.5 30.0013C279.5 19.7183 272.661 11.0608 263.358 8.48547Z" fill="white"/>
<path fill-rule="evenodd" clip-rule="evenodd" d="M136.064 39.3088H132.062V39.3092L130.737 34.8239H123.217L121.874 39.3092H117.919L122.214 25.4985C123.083 22.8307 125.876 22.8307 125.876 22.8307C126.945 22.6689 128.108 22.8307 128.108 22.8307C128.108 22.8307 130.899 22.8307 131.768 25.4989L136.064 39.3088ZM99.8886 22.8318H108.075C116.594 22.8318 116.695 30.7116 116.697 30.8985L116.697 30.9019C116.697 39.2964 107.736 39.3103 107.736 39.3103H99.8712L99.8886 22.8318ZM106.757 36.5794C106.757 36.5794 112.572 36.5343 112.572 31.0166H112.572C112.572 31.0166 112.805 25.4503 106.992 25.452H103.595V36.5794H106.757ZM124.004 32.186L125.69 26.5382C125.935 25.714 126.692 25.5413 126.993 25.5058C127.291 25.5413 128.048 25.714 128.294 26.5382L129.959 32.186H124.004ZM153.833 31.553H145.787V28.916H153.833V31.553ZM139.042 39.3086H142.858V22.7668H139.042V39.3086ZM160.72 39.3086H156.903V22.7668H160.72V39.3086ZM198.334 39.3086H202.149V22.7668H198.334V39.3086ZM230.432 39.3085H226.616V22.83H230.432V39.3085ZM191.544 28.9178V22.7686H195.357V39.3104H191.544V31.5548H184.191V39.3104H180.381V22.7686H184.191V28.9178H191.544ZM224.061 36.4955H216.403C216.403 36.4955 214.352 36.4955 214.272 34.2858V22.8318H210.461V34.0884C210.461 39.2964 214.974 39.2964 214.974 39.2964H224.062V36.4955H224.061ZM247.196 25.566H239.535V25.5655C239.535 25.5655 237.491 25.5655 237.413 27.7769V30.0851H246.686V32.7225H237.413V39.2952H233.6V27.9734C233.6 22.7668 238.113 22.7668 238.113 22.7668H247.196V25.566ZM255.476 36.4957C255.476 36.4957 253.432 36.4958 253.352 34.2861V32.1401H262.533V29.5045H253.352V27.7806C253.432 25.5679 255.476 25.6343 255.476 25.6343H263.14V22.8334H254.054C254.054 22.8334 249.541 22.77 249.541 27.975V34.0887C249.541 39.2967 254.054 39.2967 254.054 39.2967H263.17L263.11 36.4957H255.476ZM172.209 22.8146H177.698V25.5986H172.736C170.089 25.5986 167.557 28.0442 167.557 31.0642C167.557 34.0838 170.089 36.5342 172.736 36.5342H177.72V39.3104H172.21C167.328 39.3104 163.371 35.6176 163.371 31.0642C163.371 26.5104 167.327 22.8146 172.209 22.8146Z" fill="#ED1B23"/>
<path d="M122.77 69.9024C124.125 69.9024 125.298 70.1644 126.286 70.6883C127.721 71.4414 128.598 72.761 128.919 74.647H126.984C126.748 73.5926 126.26 72.8264 125.52 72.3484C124.78 71.8638 123.847 71.6215 122.721 71.6215C121.385 71.6215 120.258 72.1225 119.342 73.1244C118.431 74.1264 117.976 75.6195 117.976 77.6037C117.976 79.3195 118.353 80.7176 119.106 81.7982C119.859 82.8722 121.087 83.4092 122.789 83.4092C124.093 83.4092 125.17 83.0326 126.021 82.2795C126.879 81.5199 127.318 80.2953 127.338 78.6057H122.819V76.9849H129.155V84.7058H127.897L127.426 82.8493C126.765 83.5762 126.178 84.0804 125.668 84.362C124.81 84.8466 123.719 85.0889 122.397 85.0889C120.687 85.0889 119.217 84.5355 117.986 83.4288C116.643 82.0405 115.972 80.1348 115.972 77.7118C115.972 75.2953 116.627 73.3733 117.937 71.9456C119.181 70.5835 120.792 69.9024 122.77 69.9024ZM133.31 81.9062C133.31 82.417 133.497 82.8198 133.87 83.1145C134.243 83.4092 134.685 83.5565 135.196 83.5565C135.818 83.5565 136.421 83.4124 137.003 83.1243C137.986 82.6462 138.477 81.8637 138.477 80.7766V79.3522C138.261 79.4898 137.982 79.6044 137.642 79.696C137.301 79.7877 136.967 79.8532 136.64 79.8925L135.569 80.03C134.928 80.1152 134.446 80.2494 134.125 80.4328C133.582 80.7406 133.31 81.2317 133.31 81.9062ZM137.593 78.3306C137.999 78.2782 138.271 78.108 138.408 77.8198C138.487 77.6627 138.526 77.4367 138.526 77.142C138.526 76.5396 138.31 76.1041 137.878 75.8356C137.452 75.5605 136.84 75.423 136.041 75.423C135.117 75.423 134.463 75.6719 134.076 76.1696C133.86 76.4446 133.719 76.8539 133.654 77.3974H132.004C132.036 76.1008 132.455 75.2004 133.261 74.6961C134.073 74.1853 135.013 73.9299 136.08 73.9299C137.318 73.9299 138.323 74.1657 139.096 74.6372C139.862 75.1087 140.245 75.8421 140.245 76.8375V82.8984C140.245 83.0817 140.281 83.2291 140.353 83.3404C140.432 83.4517 140.592 83.5074 140.834 83.5074C140.913 83.5074 141.001 83.5041 141.1 83.4976C141.198 83.4845 141.303 83.4681 141.414 83.4485V84.7549C141.139 84.8335 140.929 84.8826 140.785 84.9023C140.641 84.9219 140.445 84.9317 140.196 84.9317C139.587 84.9317 139.145 84.7156 138.87 84.2834C138.726 84.0542 138.624 83.7301 138.565 83.3109C138.205 83.7824 137.688 84.1917 137.013 84.5388C136.339 84.8859 135.595 85.0594 134.783 85.0594C133.808 85.0594 133.009 84.7647 132.387 84.1754C131.771 83.5794 131.463 82.8362 131.463 81.9455C131.463 80.9698 131.768 80.2134 132.377 79.6764C132.986 79.1394 133.785 78.8087 134.774 78.6843L137.593 78.3306ZM134.469 70.0989C134.574 70.5246 134.728 70.8455 134.931 71.0616C135.298 71.4479 135.867 71.6411 136.64 71.6411C137.354 71.6411 137.888 71.4479 138.241 71.0616C138.444 70.8389 138.598 70.518 138.703 70.0989H139.675C139.544 71.0616 139.204 71.7557 138.654 72.1814C138.11 72.6071 137.373 72.8199 136.444 72.8199C135.284 72.8199 134.453 72.4302 133.948 71.651C133.687 71.2449 133.526 70.7276 133.467 70.0989H134.469ZM139.587 67.152L136.964 69.9909H135.609L137.406 67.152H139.587ZM143.153 74.1853H144.832V75.6784C145.33 75.0628 145.857 74.6208 146.414 74.3523C146.971 74.0838 147.589 73.9495 148.271 73.9495C149.764 73.9495 150.772 74.4702 151.296 75.5114C151.584 76.0812 151.728 76.8965 151.728 77.9574V84.7058H149.931V78.0752C149.931 77.4335 149.836 76.9161 149.646 76.5232C149.331 75.8683 148.762 75.5409 147.937 75.5409C147.517 75.5409 147.174 75.5835 146.905 75.6686C146.42 75.8127 145.995 76.1008 145.628 76.533C145.333 76.8801 145.14 77.2403 145.049 77.6136C144.963 77.9803 144.921 78.5075 144.921 79.1951V84.7058H143.153V74.1853ZM159.813 70.2266H161.532V75.4623C161.918 74.9581 162.38 74.575 162.917 74.313C163.454 74.0445 164.037 73.9103 164.665 73.9103C165.975 73.9103 167.036 74.3621 167.848 75.2658C168.666 76.163 169.076 77.4891 169.076 79.2442C169.076 80.9076 168.673 82.2893 167.868 83.3895C167.062 84.4897 165.945 85.0398 164.518 85.0398C163.719 85.0398 163.044 84.8466 162.494 84.4602C162.167 84.231 161.817 83.8643 161.443 83.36V84.7058H159.813V70.2266ZM164.41 83.4779C165.366 83.4779 166.08 83.0981 166.551 82.3385C167.029 81.5788 167.268 80.5768 167.268 79.3326C167.268 78.2259 167.029 77.309 166.551 76.5821C166.08 75.8552 165.382 75.4918 164.459 75.4918C163.653 75.4918 162.946 75.7897 162.337 76.3857C161.735 76.9816 161.433 77.9639 161.433 79.3326C161.433 80.3214 161.558 81.1237 161.807 81.7392C162.272 82.8984 163.139 83.4779 164.41 83.4779ZM175.323 83.5663C176.495 83.5663 177.298 83.1243 177.73 82.2402C178.169 81.3496 178.388 80.3607 178.388 79.2737C178.388 78.2913 178.231 77.4924 177.917 76.8768C177.419 75.9076 176.561 75.423 175.343 75.423C174.262 75.423 173.477 75.8356 172.985 76.6607C172.494 77.4859 172.249 78.4813 172.249 79.6469C172.249 80.7668 172.494 81.7 172.985 82.4465C173.477 83.1931 174.256 83.5663 175.323 83.5663ZM175.392 73.8808C176.748 73.8808 177.894 74.3326 178.83 75.2364C179.767 76.1401 180.235 77.4695 180.235 79.2245C180.235 80.9207 179.822 82.3221 178.997 83.4288C178.172 84.5355 176.892 85.0889 175.156 85.0889C173.709 85.0889 172.56 84.601 171.708 83.6253C170.857 82.643 170.431 81.3267 170.431 79.6764C170.431 77.9082 170.88 76.5003 171.777 75.4525C172.674 74.4047 173.879 73.8808 175.392 73.8808ZM177.445 69.9516L174.822 72.7904H173.467L175.264 69.9516H177.445ZM189.066 79.5683C189.066 80.6947 189.305 81.6377 189.783 82.3974C190.261 83.157 191.027 83.5369 192.081 83.5369C192.9 83.5369 193.571 83.1865 194.095 82.4858C194.626 81.7785 194.891 80.7668 194.891 79.4505C194.891 78.1211 194.619 77.1388 194.075 76.5035C193.532 75.8618 192.861 75.5409 192.062 75.5409C191.171 75.5409 190.447 75.8814 189.891 76.5625C189.341 77.2436 189.066 78.2455 189.066 79.5683ZM191.728 73.9987C192.533 73.9987 193.208 74.1689 193.751 74.5095C194.066 74.7059 194.423 75.0497 194.822 75.5409V70.2266H196.521V84.7058H194.93V83.2422C194.518 83.8905 194.03 84.3587 193.466 84.6469C192.903 84.935 192.258 85.0791 191.531 85.0791C190.359 85.0791 189.344 84.5879 188.486 83.6056C187.628 82.6168 187.199 81.3038 187.199 79.6666C187.199 78.1342 187.589 76.8081 188.368 75.6882C189.154 74.5619 190.274 73.9987 191.728 73.9987ZM200.5 81.9062C200.5 82.417 200.686 82.8198 201.06 83.1145C201.433 83.4092 201.875 83.5565 202.386 83.5565C203.008 83.5565 203.61 83.4124 204.193 83.1243C205.176 82.6462 205.667 81.8637 205.667 80.7766V79.3522C205.451 79.4898 205.172 79.6044 204.832 79.696C204.491 79.7877 204.157 79.8532 203.83 79.8925L202.759 80.03C202.117 80.1152 201.636 80.2494 201.315 80.4328C200.772 80.7406 200.5 81.2317 200.5 81.9062ZM204.783 78.3306C205.189 78.2782 205.46 78.108 205.598 77.8198C205.677 77.6627 205.716 77.4367 205.716 77.142C205.716 76.5396 205.5 76.1041 205.067 75.8356C204.642 75.5605 204.03 75.423 203.231 75.423C202.307 75.423 201.652 75.6719 201.266 76.1696C201.05 76.4446 200.909 76.8539 200.844 77.3974H199.193C199.226 76.1008 199.645 75.2004 200.451 74.6961C201.263 74.1853 202.202 73.9299 203.27 73.9299C204.508 73.9299 205.513 74.1657 206.286 74.6372C207.052 75.1087 207.435 75.8421 207.435 76.8375V82.8984C207.435 83.0817 207.471 83.2291 207.543 83.3404C207.621 83.4517 207.782 83.5074 208.024 83.5074C208.103 83.5074 208.191 83.5041 208.289 83.4976C208.388 83.4845 208.492 83.4681 208.604 83.4485V84.7549C208.329 84.8335 208.119 84.8826 207.975 84.9023C207.831 84.9219 207.635 84.9317 207.386 84.9317C206.777 84.9317 206.335 84.7156 206.06 84.2834C205.916 84.0542 205.814 83.7301 205.755 83.3109C205.395 83.7824 204.878 84.1917 204.203 84.5388C203.529 84.8859 202.785 85.0594 201.973 85.0594C200.997 85.0594 200.199 84.7647 199.576 84.1754C198.961 83.5794 198.653 82.8362 198.653 81.9455C198.653 80.9698 198.958 80.2134 199.567 79.6764C200.176 79.1394 200.975 78.8087 201.963 78.6843L204.783 78.3306ZM204.596 72.7904H203.25L200.618 69.9516H202.808L204.596 72.7904ZM210.342 74.2344H212.14V84.7058H210.342V74.2344ZM210.342 70.2757H212.14V72.2796H210.342V70.2757ZM220.47 70.2757H222.238V84.7058H220.47V70.2757ZM226.256 81.9062C226.256 82.417 226.442 82.8198 226.816 83.1145C227.189 83.4092 227.631 83.5565 228.142 83.5565C228.764 83.5565 229.366 83.4124 229.949 83.1243C230.932 82.6462 231.423 81.8637 231.423 80.7766V79.3522C231.207 79.4898 230.928 79.6044 230.588 79.696C230.247 79.7877 229.913 79.8532 229.586 79.8925L228.515 80.03C227.873 80.1152 227.392 80.2494 227.071 80.4328C226.528 80.7406 226.256 81.2317 226.256 81.9062ZM230.539 78.3306C230.945 78.2782 231.217 78.108 231.354 77.8198C231.433 77.6627 231.472 77.4367 231.472 77.142C231.472 76.5396 231.256 76.1041 230.824 75.8356C230.398 75.5605 229.786 75.423 228.987 75.423C228.063 75.423 227.408 75.6719 227.022 76.1696C226.806 76.4446 226.665 76.8539 226.6 77.3974H224.949C224.982 76.1008 225.401 75.2004 226.207 74.6961C227.019 74.1853 227.959 73.9299 229.026 73.9299C230.264 73.9299 231.269 74.1657 232.042 74.6372C232.808 75.1087 233.191 75.8421 233.191 76.8375V82.8984C233.191 83.0817 233.227 83.2291 233.299 83.3404C233.378 83.4517 233.538 83.5074 233.78 83.5074C233.859 83.5074 233.947 83.5041 234.046 83.4976C234.144 83.4845 234.249 83.4681 234.36 83.4485V84.7549C234.085 84.8335 233.875 84.8826 233.731 84.9023C233.587 84.9219 233.391 84.9317 233.142 84.9317C232.533 84.9317 232.091 84.7156 231.816 84.2834C231.672 84.0542 231.57 83.7301 231.511 83.3109C231.151 83.7824 230.634 84.1917 229.959 84.5388C229.285 84.8859 228.541 85.0594 227.729 85.0594C226.754 85.0594 225.955 84.7647 225.332 84.1754C224.717 83.5794 224.409 82.8362 224.409 81.9455C224.409 80.9698 224.714 80.2134 225.323 79.6764C225.932 79.1394 226.731 78.8087 227.719 78.6843L230.539 78.3306ZM230.254 69.9516L232.258 72.7904H230.647L229.321 70.9044L227.995 72.7904H226.393L228.387 69.9516H230.254ZM237.867 74.1853V81.1695C237.867 81.7065 237.952 82.1453 238.122 82.4858C238.436 83.1145 239.023 83.4288 239.88 83.4288C241.112 83.4288 241.95 82.8787 242.395 81.7785C242.637 81.1892 242.759 80.3804 242.759 79.3522V74.1853H244.527V84.7058H242.857L242.876 83.1538C242.647 83.5532 242.362 83.8905 242.022 84.1655C241.347 84.7156 240.529 84.9907 239.566 84.9907C238.066 84.9907 237.045 84.4897 236.501 83.4877C236.207 82.9508 236.059 82.2337 236.059 81.3365V74.1853H237.867Z" fill="white"/>
<path d="M87.4704 135.706V115.826H94.6944C96.8598 115.826 98.6704 116.274 100.126 117.17C101.582 118.047 102.674 119.242 103.402 120.754C104.13 122.247 104.494 123.908 104.494 125.738C104.494 127.754 104.093 129.508 103.29 131.002C102.488 132.495 101.349 133.652 99.8744 134.474C98.4184 135.295 96.6918 135.706 94.6944 135.706H87.4704ZM100.602 125.738C100.602 124.45 100.369 123.32 99.9024 122.35C99.4358 121.36 98.7638 120.595 97.8864 120.054C97.0091 119.494 95.9451 119.214 94.6944 119.214H91.3344V132.318H94.6944C95.9638 132.318 97.0371 132.038 97.9144 131.478C98.7918 130.899 99.4544 130.115 99.9024 129.126C100.369 128.118 100.602 126.988 100.602 125.738ZM105.95 131.366C105.95 130.414 106.211 129.583 106.734 128.874C107.275 128.146 108.022 127.586 108.974 127.194C109.926 126.802 111.018 126.606 112.25 126.606C112.866 126.606 113.491 126.652 114.126 126.746C114.761 126.839 115.311 126.988 115.778 127.194V126.41C115.778 125.476 115.498 124.758 114.938 124.254C114.397 123.75 113.585 123.498 112.502 123.498C111.699 123.498 110.934 123.638 110.206 123.918C109.478 124.198 108.713 124.608 107.91 125.15L106.706 122.686C107.677 122.051 108.666 121.575 109.674 121.258C110.701 120.94 111.774 120.782 112.894 120.782C114.985 120.782 116.609 121.304 117.766 122.35C118.942 123.395 119.53 124.888 119.53 126.83V131.506C119.53 131.898 119.595 132.178 119.726 132.346C119.875 132.514 120.109 132.616 120.426 132.654V135.706C120.09 135.762 119.782 135.808 119.502 135.846C119.241 135.883 119.017 135.902 118.83 135.902C118.083 135.902 117.514 135.734 117.122 135.398C116.749 135.062 116.515 134.651 116.422 134.166L116.338 133.41C115.703 134.231 114.91 134.866 113.958 135.314C113.006 135.762 112.035 135.986 111.046 135.986C110.075 135.986 109.198 135.79 108.414 135.398C107.649 134.987 107.042 134.436 106.594 133.746C106.165 133.036 105.95 132.243 105.95 131.366ZM115.078 132.122C115.283 131.898 115.451 131.674 115.582 131.45C115.713 131.226 115.778 131.02 115.778 130.834V129.35C115.33 129.163 114.845 129.023 114.322 128.93C113.799 128.818 113.305 128.762 112.838 128.762C111.867 128.762 111.065 128.976 110.43 129.406C109.814 129.816 109.506 130.367 109.506 131.058C109.506 131.431 109.609 131.786 109.814 132.122C110.019 132.458 110.318 132.728 110.71 132.934C111.102 133.139 111.569 133.242 112.11 133.242C112.67 133.242 113.221 133.139 113.762 132.934C114.303 132.71 114.742 132.439 115.078 132.122ZM123.036 135.706V121.034H126.788V135.706H123.036ZM123.036 118.99V115.266H126.788V118.99H123.036ZM130.089 129.714V126.326H138.573V129.714H130.089ZM141.876 135.706V121.034H145.628V135.706H141.876ZM141.876 118.99V115.266H145.628V118.99H141.876ZM155.845 135.986C154.65 135.986 153.577 135.79 152.625 135.398C151.673 134.987 150.861 134.427 150.189 133.718C149.517 132.99 148.994 132.168 148.621 131.254C148.266 130.339 148.089 129.378 148.089 128.37C148.089 126.988 148.397 125.728 149.013 124.59C149.647 123.432 150.543 122.508 151.701 121.818C152.858 121.127 154.23 120.782 155.817 120.782C157.403 120.782 158.766 121.127 159.905 121.818C161.043 122.508 161.893 123.414 162.453 124.534L158.785 125.654C158.467 125.112 158.047 124.702 157.525 124.422C157.002 124.123 156.423 123.974 155.789 123.974C155.079 123.974 154.426 124.16 153.829 124.534C153.25 124.888 152.793 125.402 152.457 126.074C152.121 126.727 151.953 127.492 151.953 128.37C151.953 129.228 152.121 129.994 152.457 130.666C152.811 131.319 153.278 131.842 153.857 132.234C154.435 132.607 155.079 132.794 155.789 132.794C156.237 132.794 156.657 132.719 157.049 132.57C157.459 132.42 157.823 132.215 158.141 131.954C158.458 131.692 158.691 131.394 158.841 131.058L162.509 132.178C162.173 132.906 161.678 133.559 161.025 134.138C160.39 134.716 159.634 135.174 158.757 135.51C157.898 135.827 156.927 135.986 155.845 135.986ZM178.453 135.706H174.701V127.474C174.701 126.335 174.477 125.486 174.029 124.926C173.6 124.366 173.003 124.086 172.237 124.086C171.789 124.086 171.313 124.216 170.809 124.478C170.305 124.739 169.848 125.103 169.437 125.57C169.045 126.018 168.756 126.54 168.569 127.138V135.706H164.817V115.266H168.569V123.75C169.111 122.816 169.848 122.088 170.781 121.566C171.715 121.043 172.732 120.782 173.833 120.782C174.785 120.782 175.56 120.95 176.157 121.286C176.755 121.603 177.221 122.042 177.557 122.602C177.893 123.143 178.127 123.759 178.257 124.45C178.388 125.122 178.453 125.822 178.453 126.55V135.706ZM181.716 135.706V121.034H185.468V135.706H181.716ZM181.716 118.99V115.266H185.468V118.99H181.716ZM212.155 135.706V122.658L207.059 132.374H204.903L199.807 122.658V135.706H195.943V115.826H200.087L205.967 127.138L211.903 115.826H216.019V135.706H212.155ZM226.364 135.986C225.188 135.986 224.124 135.79 223.172 135.398C222.22 134.987 221.408 134.436 220.736 133.746C220.064 133.036 219.541 132.234 219.168 131.338C218.813 130.423 218.636 129.462 218.636 128.454C218.636 127.054 218.944 125.775 219.56 124.618C220.194 123.46 221.09 122.536 222.248 121.846C223.424 121.136 224.805 120.782 226.392 120.782C227.997 120.782 229.369 121.136 230.508 121.846C231.646 122.536 232.514 123.46 233.112 124.618C233.728 125.756 234.036 126.988 234.036 128.314C234.036 128.538 234.026 128.771 234.008 129.014C233.989 129.238 233.97 129.424 233.952 129.574H222.612C222.686 130.32 222.901 130.974 223.256 131.534C223.629 132.094 224.096 132.523 224.656 132.822C225.234 133.102 225.85 133.242 226.504 133.242C227.25 133.242 227.95 133.064 228.604 132.71C229.276 132.336 229.733 131.851 229.976 131.254L233.196 132.15C232.841 132.896 232.328 133.559 231.656 134.138C231.002 134.716 230.228 135.174 229.332 135.51C228.436 135.827 227.446 135.986 226.364 135.986ZM222.528 127.194H230.2C230.125 126.447 229.91 125.803 229.556 125.262C229.22 124.702 228.772 124.272 228.212 123.974C227.652 123.656 227.026 123.498 226.336 123.498C225.664 123.498 225.048 123.656 224.488 123.974C223.946 124.272 223.498 124.702 223.144 125.262C222.808 125.803 222.602 126.447 222.528 127.194ZM235.425 128.37C235.425 126.951 235.705 125.672 236.265 124.534C236.825 123.376 237.6 122.462 238.589 121.79C239.579 121.118 240.708 120.782 241.977 120.782C243.06 120.782 244.031 121.052 244.889 121.594C245.767 122.116 246.448 122.788 246.933 123.61V115.266H250.685V131.506C250.685 131.898 250.751 132.178 250.881 132.346C251.012 132.514 251.236 132.616 251.553 132.654V135.706C250.9 135.836 250.368 135.902 249.957 135.902C249.285 135.902 248.725 135.734 248.277 135.398C247.848 135.062 247.605 134.623 247.549 134.082L247.493 133.158C246.952 134.072 246.215 134.772 245.281 135.258C244.367 135.743 243.405 135.986 242.397 135.986C241.389 135.986 240.456 135.79 239.597 135.398C238.757 135.006 238.02 134.464 237.385 133.774C236.769 133.083 236.284 132.28 235.929 131.366C235.593 130.432 235.425 129.434 235.425 128.37ZM246.933 130.33V126.83C246.747 126.288 246.448 125.803 246.037 125.374C245.627 124.944 245.169 124.608 244.665 124.366C244.161 124.104 243.657 123.974 243.153 123.974C242.575 123.974 242.052 124.095 241.585 124.338C241.119 124.58 240.708 124.907 240.353 125.318C240.017 125.728 239.756 126.204 239.569 126.746C239.401 127.287 239.317 127.856 239.317 128.454C239.317 129.051 239.411 129.62 239.597 130.162C239.803 130.684 240.092 131.142 240.465 131.534C240.839 131.926 241.268 132.234 241.753 132.458C242.257 132.682 242.799 132.794 243.377 132.794C243.732 132.794 244.087 132.738 244.441 132.626C244.815 132.495 245.16 132.327 245.477 132.122C245.813 131.898 246.103 131.636 246.345 131.338C246.607 131.02 246.803 130.684 246.933 130.33ZM254.368 135.706V121.034H258.12V135.706H254.368ZM254.368 118.99V115.266H258.12V118.99H254.368ZM268.337 135.986C267.142 135.986 266.069 135.79 265.117 135.398C264.165 134.987 263.353 134.427 262.681 133.718C262.009 132.99 261.486 132.168 261.113 131.254C260.758 130.339 260.581 129.378 260.581 128.37C260.581 126.988 260.889 125.728 261.505 124.59C262.14 123.432 263.036 122.508 264.193 121.818C265.35 121.127 266.722 120.782 268.309 120.782C269.896 120.782 271.258 121.127 272.397 121.818C273.536 122.508 274.385 123.414 274.945 124.534L271.277 125.654C270.96 125.112 270.54 124.702 270.017 124.422C269.494 124.123 268.916 123.974 268.281 123.974C267.572 123.974 266.918 124.16 266.321 124.534C265.742 124.888 265.285 125.402 264.949 126.074C264.613 126.727 264.445 127.492 264.445 128.37C264.445 129.228 264.613 129.994 264.949 130.666C265.304 131.319 265.77 131.842 266.349 132.234C266.928 132.607 267.572 132.794 268.281 132.794C268.729 132.794 269.149 132.719 269.541 132.57C269.952 132.42 270.316 132.215 270.633 131.954C270.95 131.692 271.184 131.394 271.333 131.058L275.001 132.178C274.665 132.906 274.17 133.559 273.517 134.138C272.882 134.716 272.126 135.174 271.249 135.51C270.39 135.827 269.42 135.986 268.337 135.986Z" fill="white"/>
</svg>
